<svg width="512" height="512" viewBox="0 0 512 512" fill="none" xmlns="http://www.w3.org/2000/svg">
<g clip-path="url(#clip0_219_316)">
<path fill-rule="evenodd" clip-rule="evenodd" d="M423.155 179.689L398.92 209.967C398.985 212.306 398.985 214.645 398.92 216.984L423.025 247.182C424.299 248.77 425.182 250.635 425.602 252.627C426.022 254.619 425.969 256.682 425.446 258.65C421.469 273.58 415.532 287.918 407.789 301.289C406.775 303.041 405.366 304.532 403.674 305.643C401.982 306.754 400.053 307.455 398.043 307.689L359.415 312.237C357.856 313.883 356.231 315.508 354.542 317.111L350.254 355.641C350.022 357.65 349.324 359.577 348.215 361.269C347.107 362.961 345.619 364.371 343.87 365.387C330.504 373.144 316.165 379.087 301.23 383.06C299.264 383.585 297.202 383.641 295.21 383.224C293.218 382.806 291.352 381.926 289.762 380.655L259.484 356.42C257.145 356.485 254.806 356.485 252.467 356.42L222.27 380.526C220.681 381.799 218.816 382.682 216.824 383.102C214.832 383.522 212.769 383.469 210.802 382.946C195.871 378.969 181.533 373.032 168.162 365.289C166.41 364.276 164.919 362.866 163.808 361.174C162.696 359.482 161.996 357.553 161.762 355.543L157.263 316.915C155.627 315.356 154.003 313.732 152.389 312.043L113.859 307.754C111.85 307.522 109.923 306.824 108.231 305.716C106.539 304.608 105.129 303.119 104.113 301.37C96.3634 288 90.4204 273.662 86.4404 258.73C85.9149 256.764 85.8589 254.702 86.2764 252.71C86.6939 250.718 87.5734 248.852 88.8444 247.262L113.031 216.984V209.967L88.9254 179.77C87.6519 178.182 86.7694 176.316 86.3489 174.324C85.9284 172.332 85.9819 170.27 86.5054 168.302C90.4819 153.372 96.4194 139.033 104.162 125.662C105.176 123.91 106.585 122.419 108.277 121.308C109.969 120.196 111.897 119.496 113.908 119.262L152.536 114.828C154.095 113.193 155.719 111.568 157.409 109.954L161.697 71.3595C161.929 69.3505 162.627 67.423 163.735 65.731C164.844 64.039 166.332 62.629 168.081 61.6135C181.45 53.8635 195.788 47.9205 210.72 43.9403C212.687 43.415 214.749 43.3589 216.741 43.7764C218.733 44.194 220.599 45.0736 222.189 46.3444L252.467 70.531H259.484L289.681 46.4256C291.271 45.1548 293.137 44.2752 295.129 43.8576C297.121 43.4401 299.183 43.4962 301.149 44.0215C316.081 47.986 330.42 53.918 343.789 61.662C345.541 62.676 347.032 64.085 348.143 65.777C349.254 67.4695 349.955 69.3975 350.189 71.4085L354.737 110.036C356.383 111.596 358.007 113.219 359.61 114.909L398.14 119.198C400.149 119.43 402.077 120.127 403.769 121.235C405.461 122.344 406.871 123.832 407.886 125.581C415.636 138.951 421.579 153.289 425.559 168.221C426.085 170.187 426.141 172.249 425.723 174.241C425.306 176.233 424.426 178.099 423.155 179.689ZM241.926 246.288C242.779 246.547 243.243 246.566 243.317 246.344C243.465 245.9 243.298 244.771 242.816 242.959C242.334 241.147 241.945 240.204 241.648 240.13C241.277 239.982 238.774 238.946 234.139 237.023C229.503 235.099 226.74 233.916 225.85 233.472L218.73 230.365C222.587 224.373 225.442 219.528 227.297 215.829C227.519 215.459 228.149 214.221 229.188 212.113C230.226 210.004 231.209 208.025 232.136 206.176C233.063 204.327 233.527 203.328 233.527 203.18C233.749 201.627 233.786 200.406 233.638 199.518C233.341 199.444 233.119 199.426 232.97 199.463C232.822 199.5 232.284 199.704 231.357 200.074C230.43 200.443 229.633 200.739 228.965 200.961C228.149 201.257 226.518 202.052 224.07 203.346C221.623 204.641 220.028 205.362 219.286 205.51C219.138 205.51 215.355 206.805 207.938 209.394C204.452 210.577 200.559 211.761 196.257 212.945C195.441 213.167 194.347 213.389 192.975 213.611C191.603 213.833 190.694 214.017 190.249 214.165C190.323 215.422 190.509 216.273 190.805 216.717C191.547 217.975 192.585 218.752 193.92 219.048C195.7 219.565 197.443 219.565 199.149 219.048C201.078 218.678 202.227 218.122 202.598 217.383C202.672 217.309 202.709 216.957 202.709 216.329C202.709 215.7 202.784 215.312 202.932 215.164C203.08 215.09 203.711 214.905 204.823 214.609C205.936 214.313 207.215 213.962 208.662 213.555C210.108 213.148 211.128 212.871 211.721 212.723C219.286 210.208 223.366 208.987 223.959 209.061C223.811 209.727 222.476 212.594 219.954 217.661C217.432 222.728 215.541 226.37 214.28 228.59C213.241 230.587 210.33 234.951 205.546 241.683C200.763 248.414 197.592 252.668 196.034 254.443C190.397 260.953 187.356 264.356 186.911 264.651C187.134 264.799 187.82 264.799 188.97 264.651C190.119 264.504 190.842 264.356 191.139 264.208C192.919 263.099 196.813 259.03 202.821 252.003C207.79 246.233 212.759 239.538 217.729 231.919C218.025 232.067 219.435 233.121 221.956 235.081C224.478 237.041 225.999 238.207 226.518 238.577C229.707 240.722 232.933 242.534 236.197 244.014L238.422 245.012C239.905 245.603 241.073 246.029 241.926 246.288ZM220.065 195.524C220.584 194.563 220.733 193.527 220.51 192.417C220.213 191.16 219.435 190.531 218.174 190.531C216.764 190.679 214.725 191.197 212.055 192.085C208.495 193.12 206.344 193.711 205.602 193.859C204.86 194.007 203.878 194.007 202.654 193.859C201.43 193.711 200.707 193.526 200.484 193.305L200.373 193.637C200.67 195.561 201.337 197.077 202.376 198.187C204.082 199.888 205.899 200.85 207.827 201.072C210.052 201.072 212.277 200.628 214.502 199.74C217.321 198.631 219.175 197.226 220.065 195.524ZM305.174 231.919L298.165 206.731L289.71 227.258L305.174 231.919ZM252.106 269.756L174.896 295.499V181.1L252.106 155.245V269.756ZM324.31 263.764L312.962 260.324L308.845 245.345L285.371 238.133L280.364 250.338L269.017 246.898L293.047 187.424L304.173 190.863L324.31 263.764ZM320.749 173.998L257.001 153.581L320.749 131.833V173.998ZM341.443 300.38V180.656L325.088 175.441V129.059C325.088 127.506 324.347 126.729 322.863 126.729C322.567 126.729 316.577 128.708 304.896 132.665C293.214 136.623 281.496 140.636 269.74 144.704C257.984 148.773 252.032 150.807 251.884 150.807L189.804 128.837V171.446C186.689 172.481 181.163 174.331 173.227 176.994C172.115 177.364 171.373 177.77 171.002 178.214C170.928 178.288 170.78 178.658 170.557 179.324V298.938C170.631 299.086 170.668 299.197 170.668 299.271C171.039 300.232 171.707 300.714 172.671 300.714C173.19 300.714 186.837 296.219 213.612 287.232C240.387 278.244 254.294 273.529 255.332 273.085L341.443 300.38Z" fill="url(#paint0_linear_219_316)"/>
<path d="M56.2 428H63.225L75.95 463H69.475L67.225 456.8H52.225L49.975 463H43.5L56.2 428ZM54.45 450.7H64.975L59.7 436.275L54.45 450.7ZM78.0705 453.75V438H84.1705V452.15C84.1705 453.133 84.412 454.034 84.8955 454.85C85.3785 455.65 86.0205 456.291 86.8205 456.775C87.637 457.241 88.5285 457.475 89.4955 457.475C90.4955 457.475 91.3955 457.241 92.1955 456.775C92.9955 456.291 93.637 455.65 94.1205 454.85C94.6035 454.034 94.8455 453.133 94.8455 452.15V438H100.946L100.97 463H94.8705L94.8455 460.725C93.9785 461.625 92.9535 462.341 91.7705 462.875C90.587 463.391 89.3205 463.65 87.9705 463.65C86.1535 463.65 84.4955 463.209 82.9955 462.325C81.4955 461.425 80.2955 460.234 79.3955 458.75C78.512 457.25 78.0705 455.584 78.0705 453.75ZM119.374 444.1H114.524V463H108.424V444.1H104.725V438H108.424V430.15H114.524V438H119.374V444.1ZM134.309 463.65C132.009 463.65 129.908 463.059 128.008 461.875C126.125 460.691 124.617 459.109 123.483 457.125C122.367 455.125 121.809 452.917 121.809 450.5C121.809 448.666 122.134 446.959 122.784 445.375C123.434 443.775 124.326 442.375 125.459 441.175C126.609 439.958 127.942 439.009 129.458 438.325C130.975 437.642 132.592 437.3 134.309 437.3C136.609 437.3 138.7 437.892 140.583 439.075C142.483 440.259 143.992 441.85 145.109 443.85C146.242 445.85 146.809 448.066 146.809 450.5C146.809 452.316 146.483 454.017 145.833 455.6C145.183 457.184 144.283 458.583 143.133 459.8C142 461 140.675 461.942 139.158 462.625C137.658 463.308 136.042 463.65 134.309 463.65ZM134.309 457.55C135.526 457.55 136.617 457.225 137.583 456.575C138.55 455.925 139.309 455.066 139.859 454C140.426 452.934 140.708 451.766 140.708 450.5C140.708 449.2 140.417 448.017 139.833 446.95C139.267 445.867 138.492 445.008 137.508 444.375C136.542 443.725 135.476 443.4 134.309 443.4C133.109 443.4 132.026 443.725 131.059 444.375C130.092 445.025 129.325 445.892 128.758 446.975C128.192 448.059 127.909 449.234 127.909 450.5C127.909 451.816 128.2 453.009 128.783 454.075C129.367 455.142 130.142 455.992 131.109 456.625C132.092 457.242 133.159 457.55 134.309 457.55ZM163.299 463V428H183.974V434.1H169.399V441.2H181.574V447.3H169.399V463H163.299ZM186.15 438H192.251V463H186.15V438ZM189.251 434.775C188.351 434.775 187.592 434.483 186.975 433.9C186.358 433.3 186.051 432.55 186.051 431.65C186.051 430.766 186.358 430.025 186.975 429.425C187.592 428.825 188.342 428.525 189.225 428.525C190.108 428.525 190.851 428.825 191.451 429.425C192.067 430.025 192.376 430.766 192.376 431.65C192.376 432.55 192.075 433.3 191.475 433.9C190.875 434.483 190.134 434.775 189.251 434.775ZM198.357 463V425.5H204.458V463H198.357ZM221.076 463.65C218.776 463.65 216.676 463.059 214.776 461.875C212.893 460.691 211.385 459.1 210.251 457.1C209.135 455.1 208.576 452.892 208.576 450.475C208.576 448.659 208.901 446.959 209.551 445.375C210.201 443.775 211.093 442.375 212.226 441.175C213.376 439.958 214.709 439.009 216.226 438.325C217.743 437.642 219.36 437.3 221.076 437.3C223.026 437.3 224.809 437.716 226.426 438.55C228.059 439.366 229.443 440.491 230.576 441.925C231.71 443.358 232.534 444.992 233.051 446.825C233.568 448.659 233.685 450.575 233.401 452.575H215.126C215.36 453.509 215.743 454.35 216.276 455.1C216.81 455.834 217.484 456.425 218.301 456.875C219.118 457.308 220.043 457.533 221.076 457.55C222.143 457.566 223.109 457.316 223.976 456.8C224.859 456.266 225.593 455.55 226.176 454.65L232.401 456.1C231.385 458.317 229.868 460.133 227.851 461.55C225.834 462.95 223.576 463.65 221.076 463.65ZM214.926 448H227.226C227.043 447 226.651 446.1 226.051 445.3C225.468 444.483 224.743 443.834 223.876 443.35C223.01 442.867 222.076 442.625 221.076 442.625C220.076 442.625 219.151 442.867 218.301 443.35C217.451 443.817 216.726 444.458 216.126 445.275C215.543 446.075 215.143 446.984 214.926 448ZM245.039 463.45C243.739 463.367 242.481 463.108 241.264 462.675C240.064 462.225 238.997 461.617 238.064 460.85C237.13 460.084 236.414 459.167 235.914 458.1L241.064 455.9C241.264 456.233 241.589 456.592 242.039 456.975C242.489 457.342 243.023 457.65 243.639 457.9C244.273 458.15 244.964 458.275 245.714 458.275C246.348 458.275 246.948 458.191 247.514 458.025C248.098 457.841 248.564 457.567 248.914 457.2C249.281 456.834 249.464 456.358 249.464 455.775C249.464 455.158 249.247 454.684 248.814 454.35C248.397 454 247.864 453.742 247.214 453.575C246.581 453.392 245.964 453.225 245.364 453.075C243.78 452.759 242.305 452.267 240.939 451.6C239.589 450.934 238.498 450.075 237.664 449.025C236.848 447.958 236.439 446.675 236.439 445.175C236.439 443.525 236.872 442.1 237.739 440.9C238.622 439.7 239.764 438.775 241.164 438.125C242.581 437.475 244.105 437.15 245.739 437.15C247.722 437.15 249.539 437.566 251.189 438.4C252.855 439.216 254.173 440.375 255.139 441.875L250.314 444.725C250.08 444.325 249.756 443.958 249.339 443.625C248.923 443.275 248.448 442.991 247.914 442.775C247.381 442.541 246.822 442.409 246.239 442.375C245.489 442.341 244.805 442.409 244.189 442.575C243.572 442.742 243.072 443.025 242.689 443.425C242.322 443.825 242.139 444.358 242.139 445.025C242.139 445.658 242.389 446.134 242.889 446.45C243.389 446.75 243.989 446.983 244.689 447.15C245.405 447.316 246.089 447.5 246.739 447.7C248.205 448.184 249.58 448.775 250.864 449.475C252.164 450.175 253.205 451.033 253.989 452.05C254.772 453.066 255.147 454.284 255.114 455.7C255.114 457.317 254.631 458.734 253.664 459.95C252.698 461.15 251.448 462.067 249.914 462.7C248.398 463.334 246.773 463.584 245.039 463.45ZM271.405 463V428H277.504V456.9H292.079V463H271.405ZM306.526 463.65C304.226 463.65 302.125 463.059 300.225 461.875C298.342 460.691 296.834 459.109 295.701 457.125C294.584 455.125 294.026 452.917 294.026 450.5C294.026 448.666 294.35 446.959 295 445.375C295.65 443.775 296.542 442.375 297.676 441.175C298.826 439.958 300.159 439.009 301.676 438.325C303.192 437.642 304.809 437.3 306.526 437.3C308.826 437.3 310.917 437.892 312.801 439.075C314.701 440.259 316.209 441.85 317.326 443.85C318.459 445.85 319.026 448.066 319.026 450.5C319.026 452.316 318.701 454.017 318.051 455.6C317.401 457.184 316.5 458.583 315.35 459.8C314.217 461 312.892 461.942 311.375 462.625C309.875 463.308 308.259 463.65 306.526 463.65ZM306.526 457.55C307.742 457.55 308.834 457.225 309.801 456.575C310.767 455.925 311.526 455.066 312.076 454C312.642 452.934 312.926 451.766 312.926 450.5C312.926 449.2 312.634 448.017 312.051 446.95C311.484 445.867 310.708 445.008 309.725 444.375C308.758 443.725 307.692 443.4 306.526 443.4C305.326 443.4 304.242 443.725 303.276 444.375C302.309 445.025 301.542 445.892 300.975 446.975C300.408 448.059 300.125 449.234 300.125 450.5C300.125 451.816 300.417 453.009 301 454.075C301.583 455.142 302.359 455.992 303.326 456.625C304.309 457.242 305.376 457.55 306.526 457.55ZM338.516 455.475L344.016 458.45C342.866 460.017 341.424 461.275 339.69 462.225C337.957 463.175 336.066 463.65 334.016 463.65C331.716 463.65 329.616 463.059 327.716 461.875C325.833 460.691 324.324 459.109 323.19 457.125C322.074 455.125 321.516 452.917 321.516 450.5C321.516 448.666 321.841 446.959 322.491 445.375C323.141 443.775 324.032 442.375 325.165 441.175C326.315 439.958 327.649 439.009 329.165 438.325C330.682 437.642 332.299 437.3 334.016 437.3C336.066 437.3 337.957 437.775 339.69 438.725C341.424 439.675 342.866 440.95 344.016 442.55L338.516 445.5C337.933 444.834 337.24 444.317 336.44 443.95C335.657 443.584 334.849 443.4 334.016 443.4C332.816 443.4 331.733 443.733 330.766 444.4C329.799 445.05 329.033 445.916 328.466 447C327.899 448.066 327.616 449.234 327.616 450.5C327.616 451.75 327.899 452.916 328.466 454C329.033 455.066 329.799 455.925 330.766 456.575C331.733 457.225 332.816 457.55 334.016 457.55C334.883 457.55 335.708 457.366 336.491 457C337.274 456.616 337.949 456.109 338.516 455.475ZM366.573 438H372.672V463H366.573L366.297 459.9C365.614 461.016 364.706 461.925 363.573 462.625C362.456 463.308 361.131 463.65 359.598 463.65C357.748 463.65 356.014 463.3 354.397 462.6C352.781 461.9 351.356 460.934 350.122 459.7C348.906 458.467 347.947 457.041 347.247 455.425C346.564 453.808 346.223 452.075 346.223 450.225C346.223 448.442 346.548 446.767 347.198 445.2C347.865 443.634 348.79 442.259 349.973 441.075C351.156 439.892 352.523 438.966 354.073 438.3C355.623 437.633 357.29 437.3 359.073 437.3C360.723 437.3 362.197 437.666 363.497 438.4C364.814 439.133 365.931 440.067 366.848 441.2L366.573 438ZM359.448 457.775C360.748 457.775 361.897 457.45 362.897 456.8C363.897 456.15 364.681 455.275 365.247 454.175C365.814 453.058 366.098 451.834 366.098 450.5C366.098 449.15 365.814 447.925 365.247 446.825C364.681 445.709 363.889 444.825 362.872 444.175C361.872 443.525 360.731 443.2 359.448 443.2C358.165 443.2 356.989 443.534 355.922 444.2C354.872 444.85 354.031 445.725 353.397 446.825C352.781 447.925 352.473 449.15 352.473 450.5C352.473 451.85 352.789 453.075 353.422 454.175C354.056 455.275 354.898 456.15 355.948 456.8C357.015 457.45 358.181 457.775 359.448 457.775ZM377.801 463V425.5H383.901V463H377.801ZM389.91 438H396.01V463H389.91V438ZM393.01 434.775C392.11 434.775 391.352 434.483 390.735 433.9C390.118 433.3 389.81 432.55 389.81 431.65C389.81 430.766 390.118 430.025 390.735 429.425C391.352 428.825 392.102 428.525 392.985 428.525C393.868 428.525 394.61 428.825 395.21 429.425C395.827 430.025 396.135 430.766 396.135 431.65C396.135 432.55 395.835 433.3 395.235 433.9C394.635 434.483 393.894 434.775 393.01 434.775ZM422.37 444.1L409.794 456.9H422.37V463H401.02V456.9L413.595 444.1H401.02V438H422.37V444.1ZM437.776 463.65C435.476 463.65 433.375 463.059 431.475 461.875C429.592 460.691 428.084 459.1 426.951 457.1C425.834 455.1 425.276 452.892 425.276 450.475C425.276 448.659 425.6 446.959 426.25 445.375C426.9 443.775 427.792 442.375 428.926 441.175C430.076 439.958 431.409 439.009 432.926 438.325C434.442 437.642 436.059 437.3 437.776 437.3C439.726 437.3 441.508 437.716 443.125 438.55C444.758 439.366 446.142 440.491 447.276 441.925C448.409 443.358 449.233 444.992 449.75 446.825C450.267 448.659 450.383 450.575 450.1 452.575H431.826C432.059 453.509 432.442 454.35 432.975 455.1C433.508 455.834 434.183 456.425 435 456.875C435.817 457.308 436.742 457.533 437.776 457.55C438.842 457.566 439.809 457.316 440.676 456.8C441.559 456.266 442.292 455.55 442.875 454.65L449.1 456.1C448.083 458.317 446.567 460.133 444.551 461.55C442.534 462.95 440.276 463.65 437.776 463.65ZM431.625 448H443.926C443.742 447 443.35 446.1 442.75 445.3C442.167 444.483 441.442 443.834 440.576 443.35C439.709 442.867 438.776 442.625 437.776 442.625C436.776 442.625 435.85 442.867 435 443.35C434.15 443.817 433.426 444.458 432.826 445.275C432.242 446.075 431.842 446.984 431.625 448ZM454.193 463L454.168 438H460.268L460.293 440.225C461.143 439.325 462.159 438.617 463.343 438.1C464.526 437.567 465.801 437.3 467.168 437.3C468.084 437.3 469.001 437.434 469.918 437.7L467.518 443.85C466.885 443.6 466.252 443.475 465.618 443.475C464.635 443.475 463.734 443.717 462.918 444.2C462.118 444.667 461.477 445.308 460.993 446.125C460.527 446.925 460.293 447.816 460.293 448.8V463H454.193Z" fill="url(#paint1_linear_219_316)"/>
</g>
<defs>
<linearGradient id="paint0_linear_219_316" x1="256" y1="383.5" x2="256" y2="43.5" gradientUnits="userSpaceOnUse">
<stop stop-color="#73021F"/>
<stop offset="0.193624" stop-color="#C70E2A"/>
<stop offset="0.48875" stop-color="#F62C4A"/>
<stop offset="0.734375" stop-color="#F76136"/>
<stop offset="1" stop-color="#FB8032"/>
</linearGradient>
<linearGradient id="paint1_linear_219_316" x1="256" y1="475.5" x2="256" y2="415.5" gradientUnits="userSpaceOnUse">
<stop stop-color="#73021F"/>
<stop offset="0.193624" stop-color="#C70E2A"/>
<stop offset="0.48875" stop-color="#F62C4A"/>
<stop offset="0.734375" stop-color="#F76136"/>
<stop offset="1" stop-color="#FB8032"/>
</linearGradient>
<clipPath id="clip0_219_316">
<rect width="512" height="512" fill="white"/>
</clipPath>
</defs>
</svg>
